<?xml version="1.0" encoding="utf-8"?>
<!DOCTYPE svg PUBLIC "-//W3C//DTD SVG 1.1//EN" "http://www.w3.org/Graphics/SVG/1.1/DTD/svg11.dtd">
<svg version="1.1" xmlns="http://www.w3.org/2000/svg" xmlns:xlink="http://www.w3.org/1999/xlink" x="0px" y="0px" width="768px" height="768px" viewBox="0 0 768 768" enable-background="new 0 0 768 768" xml:space="preserve">
<g>
	<circle fill="#009688" cx="384" cy="384" r="384"/>
	<path fill="#FFFFFF" d="M555.4,283.6l-18.2-9.8c-39.1-19.5-83.2-32.3-130.6-36.5c-47.4-4.2-93.1,0.8-135,13.2l-19.6,6.5c-97.8,35.5-171.1,112.8-188,209l640,56.2C704.1,424.4,645.5,335.6,555.4,283.6"/>
	<path d="M525.5,417.3c-19.5-1.7-34-19-32.3-38.5c1.7-19.6,19-34,38.5-32.3c19.6,1.7,34,19,32.3,38.5C562.3,404.5,545,419,525.5,417.3"/>
	<path d="M258.1,393.8c-19.6-1.7-34-19-32.3-38.5c1.7-19.6,19-34,38.5-32.3c19.5,1.7,34,19,32.3,38.5C294.9,381,277.6,395.5,258.1,393.8"/>
	<path d="M556.3,283.7l66.6-80.6c4-4.8,3.7-11.6-0.6-15.1c-4.3-3.6-11-2.6-14.9,2.2l-69.3,83.7L556.3,283.7"/>
	<path d="M270.7,250.4l-53.6-94.5c-3.1-5.4-9.5-7.5-14.4-4.8c-4.9,2.8-6.3,9.4-3.3,14.8l51.6,91L270.7,250.4z"/>
</g>
</svg>
