<?xml version="1.0" encoding="utf-8"?>
<!DOCTYPE svg PUBLIC "-//W3C//DTD SVG 1.1//EN" "http://www.w3.org/Graphics/SVG/1.1/DTD/svg11.dtd">
<svg version="1.1" id="Layer_1" xmlns="http://www.w3.org/2000/svg" xmlns:xlink="http://www.w3.org/1999/xlink" x="0px" y="0px" width="500px" height="500px" viewBox="0 0 500 500" enable-background="new 0 0 500 500" xml:space="preserve">
<g>
	<path fill="#FFFFFF" d="M306.5,110.5l-6.2-3.3c-13.3-6.6-28.3-11-44.4-12.4S224.3,95,210,99.3l-6.7,2.2c-33.2,12.1-58.1,38.3-63.9,71L357,191.6C357,158.4,337.1,128.2,306.5,110.5"/>
	<path d="M296.3,155.9c-6.6-0.6-11.6-6.4-11-13.1c0.6-6.6,6.4-11.6,13.1-11c6.6,0.6,11.6,6.4,11,13.1C308.8,151.6,302.9,156.5,296.3,155.9"/>
	<path d="M205.4,147.9c-6.6-0.6-11.6-6.4-11-13.1c0.6-6.6,6.4-11.6,13.1-11c6.6,0.6,11.6,6.4,11,13.1C217.9,143.6,212.1,148.5,205.4,147.9"/>
	<path d="M306.8,110.5l22.6-27.4c1.3-1.6,1.2-3.9-0.2-5.1c-1.5-1.2-3.7-0.9-5.1,0.8l-23.5,28.5L306.8,110.5"/>
	<path d="M209.7,99.2l-18.2-32.1c-1-1.8-3.2-2.6-4.9-1.6c-1.7,0.9-2.1,3.2-1.1,5l17.5,30.9L209.7,99.2z"/>
	<path d="M373.2,335.6c0,13.5,10.9,24.4,24.4,24.4l0,0c13.5,0,24.4-10.9,24.4-24.4v-98.5c0-13.4-10.9-24.4-24.4-24.4l0,0c-13.5,0-24.4,10.9-24.4,24.4V335.6z"/>
	<path d="M126.8,335.6c0,13.5-10.9,24.4-24.4,24.4l0,0c-13.4,0-24.4-10.9-24.4-24.4v-98.5c0-13.4,10.9-24.4,24.4-24.4l0,0c13.5,0,24.4,10.9,24.4,24.4C126.8,237.1,126.8,335.6,126.8,335.6z"/>
	<path fill="#FFFFFF" d="M140.8,213.5v177.9c0,10.6,8.6,19.1,19.1,19.1H340c10.6,0,19.1-8.6,19.1-19.1V213.5H140.8z"/>
	<path d="M293,386.2h-54.7c-13.5,0-24.4,10.9-24.4,24.4c0,13.5,10.9,24.4,24.4,24.4H293V386.2z"/>
	<path d="M207,386.2h-54.7c-13.5,0-24.4,10.9-24.4,24.4c0,13.5,10.9,24.4,24.4,24.4H207V386.2z"/>
</g>
</svg>
